<svg width="71.419mm" height="11.556mm" version="1.1" viewBox="0 0 71.419 11.556" xmlns="http://www.w3.org/2000/svg">
 <g transform="translate(-.59755 -1.0075)" fill="#ffac3f" stroke-dashoffset="61.599" stroke-linecap="round" stroke-linejoin="round">
  <g transform="matrix(.079097 -.021283 .021283 .079097 -60.278 -52.005)" fill="#ffac3f" stroke="#000">
   <g transform="translate(-7.0958,3.5654)" fill="#ffac3f">
    <g transform="translate(.0021286 .00057158)" fill="#ffac3f">
     <path transform="rotate(66.516)" d="m1042.3-256.84a38.681 38.681 2.3562e-8 0 0-3.4711 16.067 38.681 38.681 2.3562e-8 0 0 38.706 38.632 38.681 38.681 2.3562e-8 0 0 38.655-38.681l8e-4 -0.0998a38.681 38.681 2.3562e-8 0 0-38.756-38.581 38.681 38.681 2.3562e-8 0 0-35.135 22.663zm27.512-7.6766a8.2511 8.2511 23.484 0 1 10.841-4.302l0.02 9e-3a8.2511 8.2511 23.484 0 1 4.2832 10.85 8.2511 8.2511 23.484 0 1-10.848 4.2902 8.2511 8.2511 23.484 0 1-4.2954-10.846z" stroke-width="2.6377"/>
     <path d="m618.19 893.24-92.691 40.388-3.6531 13.56 14.48 7.0314 14.161-5.515 1.439-8.5498 8.0744 4.4159 3.2168-1.3976 0.0334-5.7804 4.6614 3.7413 5.1934-2.2564-0.62252-7.7122 6.1548 5.2378 46.814-20.269" stroke-width="1.8241"/>
     <path d="m524.23 939.74 73.459-31.587" stroke-width="2.5"/>
    </g>
   </g>
  </g>
  <g stroke-width=".39687">
   <path d="m19.15 8.6281q0 0.85266-0.61581 1.3436-0.6115 0.49093-1.7053 0.49093-1.0077 0-1.7828-0.37896v-1.2402q0.63732 0.28421 1.0766 0.40049 0.44354 0.11627 0.80959 0.11627 0.43926 0 0.6718-0.16794 0.23685-0.16794 0.23685-0.49953 0-0.18517-0.10335-0.32729-0.10335-0.14641-0.30575-0.2799-0.19809-0.1335-0.8139-0.42632-0.57705-0.2713-0.86557-0.52106-0.28852-0.24977-0.46077-0.58136-0.17224-0.3316-0.17225-0.77514 0-0.83541 0.56414-1.3134 0.56842-0.47799 1.5675-0.47799 0.49093 0 0.93447 0.11627 0.44785 0.11627 0.93447 0.32729l-0.43063 1.0378q-0.50384-0.2067-0.83544-0.28852-0.32729-0.081819-0.64595-0.081819-0.37896 0-0.58136 0.17656t-0.2024 0.46077q0 0.17656 0.08182 0.31006 0.08182 0.12919 0.25838 0.25407 0.18086 0.12058 0.84835 0.43926 0.8828 0.42201 1.2101 0.84835 0.32729 0.42201 0.32729 1.0378z" style="white-space:pre"/>
   <path d="m20.132 4.3176q0-0.64163 0.71484-0.64163t0.71484 0.64163q0 0.30575-0.18086 0.47799-0.17656 0.16794-0.53398 0.16794-0.71484 0-0.71484-0.64595zm1.3694 6.0589h-1.3134v-4.8146h1.3134z" style="white-space:pre"/>
   <path d="m27.069 5.5622v0.66748l-0.7536 0.19378q0.2067 0.32297 0.2067 0.72347 0 0.77514-0.5426 1.2101-0.53829 0.43063-1.4986 0.43063l-0.23685-0.01292-0.19378-0.021532q-0.2024 0.15503-0.2024 0.34451 0 0.28421 0.72347 0.28421h0.81819q0.79236 0 1.2058 0.3402 0.41772 0.3402 0.41772 0.99905 0 0.84404-0.70624 1.3091-0.70193 0.46508-2.0196 0.46508-1.0077 0-1.5417-0.35311-0.52969-0.34882-0.52969-0.98183 0-0.43494 0.2713-0.72775t0.79668-0.41772q-0.2024-0.086126-0.35311-0.2799-0.15072-0.19809-0.15072-0.41772 0-0.27561 0.15933-0.45648 0.15933-0.18517 0.46077-0.36173-0.37896-0.16364-0.60287-0.52538-0.21962-0.36173-0.21962-0.85266 0-0.78805 0.51244-1.2187 0.51244-0.43063 1.4641-0.43063 0.2024 0 0.47799 0.038756 0.2799 0.034451 0.35742 0.051675zm-3.7163 5.4948q0 0.2713 0.25838 0.42632 0.26269 0.15503 0.73207 0.15503 0.70624 0 1.1067-0.19378 0.40047-0.19378 0.4005-0.52969 0-0.2713-0.23685-0.37464-0.23685-0.10335-0.73207-0.10335h-0.68039q-0.36173 0-0.60718 0.16794-0.24115 0.17225-0.24115 0.45217zm0.47799-3.9187q0 0.39187 0.17656 0.6201 0.18086 0.22823 0.54689 0.22823 0.37033 0 0.5426-0.22823 0.17225-0.22823 0.17225-0.6201 0-0.86989-0.71484-0.86989-0.72347 0-0.72347 0.86989z" style="white-space:pre"/>
   <path d="m32.305 10.376h-1.3134v-2.812q0-0.52106-0.18517-0.77945-0.18517-0.26269-0.58996-0.26269-0.5512 0-0.79668 0.37033-0.24546 0.36605-0.24546 1.2187v2.2651h-1.3134v-4.8146h1.0034l0.17656 0.61581h0.07321q0.21962-0.34882 0.60287-0.52538 0.38756-0.18086 0.87848-0.18086 0.83972 0 1.2747 0.45648 0.43494 0.45217 0.43494 1.3091z" style="white-space:pre"/>
   <path d="m33.602 4.3176q0-0.64163 0.71484-0.64163t0.71484 0.64163q0 0.30575-0.18086 0.47799-0.17656 0.16794-0.53398 0.16794-0.71484 0-0.71484-0.64595zm1.3694 6.0589h-1.3134v-4.8146h1.3134z" style="white-space:pre"/>
   <path d="m40.793 10.376h-1.3134v-2.812q0-0.52106-0.18517-0.77945-0.18517-0.26269-0.58996-0.26269-0.5512 0-0.79668 0.37033-0.24546 0.36605-0.24546 1.2187v2.2651h-1.3134v-4.8146h1.0034l0.17656 0.61581h0.07321q0.21962-0.34882 0.60287-0.52538 0.38756-0.18086 0.87848-0.18086 0.83972 0 1.2747 0.45648 0.43494 0.45217 0.43494 1.3091z" style="white-space:pre"/>
   <path d="m46.336 5.5622v0.66748l-0.7536 0.19378q0.2067 0.32297 0.2067 0.72347 0 0.77514-0.5426 1.2101-0.53829 0.43063-1.4986 0.43063l-0.23685-0.01292-0.19378-0.021532q-0.2024 0.15503-0.2024 0.34451 0 0.28421 0.72347 0.28421h0.81819q0.79236 0 1.2058 0.3402 0.41772 0.3402 0.41772 0.99905 0 0.84404-0.70624 1.3091-0.70193 0.46508-2.0196 0.46508-1.0077 0-1.5417-0.35311-0.52969-0.34882-0.52969-0.98183 0-0.43494 0.2713-0.72775t0.79668-0.41772q-0.2024-0.086126-0.35311-0.2799-0.15072-0.19809-0.15072-0.41772 0-0.27561 0.15933-0.45648 0.15934-0.18517 0.46077-0.36173-0.37896-0.16364-0.60287-0.52538-0.21962-0.36173-0.21962-0.85266 0-0.78805 0.51244-1.2187 0.51244-0.43063 1.4641-0.43063 0.2024 0 0.47799 0.038756 0.2799 0.034451 0.35742 0.051675zm-3.7163 5.4948q0 0.2713 0.25838 0.42632 0.26269 0.15503 0.73207 0.15503 0.70624 0 1.1067-0.19378 0.4005-0.19378 0.4005-0.52969 0-0.2713-0.23685-0.37464-0.23685-0.10335-0.73207-0.10335h-0.68039q-0.36173 0-0.60718 0.16794-0.24115 0.17225-0.24115 0.45217zm0.47799-3.9187q0 0.39187 0.17656 0.6201 0.18086 0.22823 0.54689 0.22823 0.37033 0 0.5426-0.22823 0.17225-0.22823 0.17225-0.6201 0-0.86989-0.71484-0.86989-0.72347 0-0.72347 0.86989z" style="white-space:pre"/>
   <path d="m54.586 10.376h-1.5158l-1.6493-2.6527-0.56414 0.40478v2.2479h-1.335v-6.2959h1.335v2.881l0.52538-0.74069 1.7053-2.1402h1.4814l-2.1962 2.7863z" style="white-space:pre"/>
   <path d="m57.269 6.4062q-0.41772 0-0.65457 0.26699-0.23685 0.26269-0.2713 0.74929h1.8431q-0.008625-0.48662-0.25407-0.74929-0.24546-0.26699-0.66317-0.26699zm0.18517 4.0565q-1.1627 0-1.8173-0.64163-0.65457-0.64163-0.65457-1.8173 0-1.2101 0.60287-1.8689 0.60718-0.66317 1.6752-0.66317 1.0206 0 1.589 0.58136 0.56842 0.58136 0.56842 1.6063v0.63735h-3.1048q0.02154 0.55982 0.33157 0.87417 0.31006 0.31437 0.86989 0.31437 0.43494 0 0.8225-0.090433t0.80959-0.28852v1.0163q-0.34451 0.17225-0.73638 0.25407-0.39187 0.08613-0.95601 0.08613z" style="white-space:pre"/>
   <path d="m59.621 5.5622h1.4383l0.90862 2.7088q0.11627 0.35311 0.15933 0.83541h0.02582q0.04737-0.44354 0.18517-0.83541l0.8914-2.7088h1.4082l-2.0369 5.4302q-0.2799 0.7536-0.80096 1.1282-0.51675 0.37464-1.2101 0.37464-0.3402 0-0.66748-0.07321v-1.0421q0.23685 0.05598 0.51675 0.05598 0.34882 0 0.60718-0.21532 0.26268-0.21101 0.40909-0.64163l0.07751-0.23685z" style="white-space:pre"/>
  </g>
  <path d="m71.303 3.7036 1e-6 1.879c0 0.33606-0.25744 0.60661-0.57721 0.60661h-3.5623c-0.31977 0-0.5772-0.27055-0.5772-0.60661v-3.005c0-0.33606 0.25744-0.60661 0.5772-0.60661h2.2183" fill="none" stroke="#ffac3f" stroke-width=".42594"/>
  <g transform="matrix(.74813 0 0 .74813 16.727 1.0273)" fill="#ffac3f" stroke="#ffac3f" stroke-linecap="round" stroke-linejoin="round">
   <path d="m69.78 4.0979 3.8392-3.8399" stroke-width=".53425"/>
   <path d="m73.619 0.25807h-2.3081" stroke-width=".569"/>
   <path d="m73.602 0.30452v2.3081" stroke-width=".569"/>
  </g>
 </g>
</svg>
