<svg width="71.901mm" height="16.037mm" version="1.1" viewBox="0 0 71.901 16.037" xmlns="http://www.w3.org/2000/svg">
 <g fill="#ffac3f">
  <g transform="translate(-81.913 -91.285)">
   <g transform="matrix(.11884 -.031977 .031977 .11884 -9.5506 10.31)" fill="#ffac3f" stroke="#000" stroke-dashoffset="61.599" stroke-linecap="round" stroke-linejoin="round">
    <g transform="translate(-7.0958,3.5654)" fill="#ffac3f">
     <g transform="translate(.0021286 .00057158)" fill="#ffac3f">
      <path transform="rotate(66.516)" d="m1042.3-256.84a38.681 38.681 2.3562e-8 0 0-3.4711 16.067 38.681 38.681 2.3562e-8 0 0 38.706 38.632 38.681 38.681 2.3562e-8 0 0 38.655-38.681l8e-4 -0.0998a38.681 38.681 2.3562e-8 0 0-38.756-38.581 38.681 38.681 2.3562e-8 0 0-35.135 22.663zm27.512-7.6766a8.2511 8.2511 23.484 0 1 10.841-4.302l0.02 9e-3a8.2511 8.2511 23.484 0 1 4.2832 10.85 8.2511 8.2511 23.484 0 1-10.848 4.2902 8.2511 8.2511 23.484 0 1-4.2954-10.846z" stroke-width="2.6377"/>
      <path d="m618.19 893.24-92.691 40.388-3.6531 13.56 14.48 7.0314 14.161-5.515 1.439-8.5498 8.0744 4.4159 3.2168-1.3976 0.0334-5.7804 4.6614 3.7413 5.1934-2.2564-0.62252-7.7122 6.1548 5.2378 46.814-20.269" stroke-width="1.8241"/>
      <path d="m524.23 939.74 73.459-31.587" stroke-width="2.5"/>
     </g>
    </g>
   </g>
  </g>
  <g transform="matrix(.26458 0 0 .26458 -5.1191 -3.4967)" stroke-dashoffset="61.599" stroke-linecap="round" stroke-linejoin="round" stroke-width="1.5" style="shape-inside:url(#rect393);white-space:pre" aria-label="Signing Key">
   <path d="m118.43 45.573q0 3.2227-2.3275 5.0781-2.3112 1.8555-6.4453 1.8555-3.8086 0-6.7383-1.4323v-4.6875q2.4088 1.0742 4.069 1.5137 1.6764 0.43945 3.0599 0.43945 1.6602 0 2.5391-0.63476 0.89519-0.63476 0.89519-1.888 0-0.69987-0.39063-1.237-0.39062-0.55338-1.1556-1.0579-0.74869-0.50456-3.0762-1.6113-2.181-1.0254-3.2715-1.9694-1.0905-0.94401-1.7415-2.1973t-0.65104-2.9297q0-3.1575 2.1322-4.9642 2.1484-1.8066 5.9245-1.8066 1.8555 0 3.5319 0.43945 1.6927 0.43945 3.5319 1.237l-1.6276 3.9225q-1.9043-0.78125-3.1576-1.0905-1.237-0.30924-2.4414-0.30924-1.4323 0-2.1973 0.66732-0.76498 0.66732-0.76498 1.7415 0 0.66732 0.30925 1.1719 0.30924 0.48828 0.97656 0.96029 0.68359 0.45573 3.2064 1.6602 3.3366 1.595 4.5736 3.2064 1.237 1.595 1.237 3.9225z"/>
   <path d="m122.14 29.281q0-2.4251 2.7018-2.4251t2.7018 2.4251q0 1.1556-0.68359 1.8066-0.66732 0.63476-2.0182 0.63476-2.7018 0-2.7018-2.4414zm5.1758 22.9h-4.9642v-18.197h4.9642z"/>
   <path d="m148.36 33.985v2.5228l-2.8483 0.73242q0.78124 1.2207 0.78124 2.7344 0 2.9297-2.0508 4.5736-2.0345 1.6276-5.6641 1.6276l-0.89518-0.04883-0.73242-0.08138q-0.76498 0.58594-0.76498 1.3021 0 1.0742 2.7344 1.0742h3.0924q2.9948 0 4.5573 1.2858 1.5788 1.2858 1.5788 3.776 0 3.1901-2.6693 4.9479-2.653 1.7578-7.6334 1.7578-3.8086 0-5.8268-1.3346-2.002-1.3184-2.002-3.7109 0-1.6439 1.0254-2.7506t3.0111-1.5788q-0.76497-0.32552-1.3346-1.0579-0.56966-0.7487-0.56966-1.5788 0-1.0417 0.60221-1.7253 0.60221-0.69987 1.7415-1.3672-1.4323-0.61849-2.2786-1.9857-0.83008-1.3672-0.83008-3.2227 0-2.9785 1.9368-4.6061 1.9368-1.6276 5.5338-1.6276 0.76497 0 1.8066 0.14648 1.0579 0.13021 1.3509 0.19531zm-14.046 20.768q0 1.0254 0.97656 1.6113 0.99284 0.58594 2.7669 0.58594 2.6693 0 4.1829-0.73242t1.5137-2.002q0-1.0254-0.89518-1.416-0.89518-0.39062-2.7669-0.39062h-2.5716q-1.3672 0-2.2949 0.63476-0.91146 0.65104-0.91146 1.709zm1.8066-14.811q0 1.4811 0.66732 2.3437 0.68359 0.86263 2.067 0.86263 1.3997 0 2.0508-0.86263 0.65104-0.86263 0.65104-2.3437 0-3.2878-2.7018-3.2878-2.7344 0-2.7344 3.2878z"/>
   <path d="m168.15 52.181h-4.9642v-10.628q0-1.9694-0.69987-2.946-0.69987-0.99284-2.2298-0.99284-2.0833 0-3.0111 1.3997-0.92773 1.3835-0.92773 4.6061v8.5612h-4.9642v-18.197h3.7923l0.66732 2.3275h0.27669q0.83008-1.3184 2.2786-1.9857 1.4648-0.68359 3.3203-0.68359 3.1738 0 4.8177 1.7253 1.6439 1.709 1.6439 4.9479z"/>
   <path d="m173.05 29.281q0-2.4251 2.7018-2.4251t2.7018 2.4251q0 1.1556-0.68359 1.8066-0.66732 0.63476-2.0182 0.63476-2.7018 0-2.7018-2.4414zm5.1758 22.9h-4.9642v-18.197h4.9642z"/>
   <path d="m200.23 52.181h-4.9642v-10.628q0-1.9694-0.69987-2.946-0.69987-0.99284-2.2298-0.99284-2.0833 0-3.0111 1.3997-0.92774 1.3835-0.92774 4.6061v8.5612h-4.9642v-18.197h3.7923l0.66732 2.3275h0.27669q0.83008-1.3184 2.2786-1.9857 1.4648-0.68359 3.3203-0.68359 3.1738 0 4.8177 1.7253 1.6439 1.709 1.6439 4.9479z"/>
   <path d="m221.18 33.985v2.5228l-2.8483 0.73242q0.78125 1.2207 0.78125 2.7344 0 2.9297-2.0508 4.5736-2.0345 1.6276-5.6641 1.6276l-0.89518-0.04883-0.73242-0.08138q-0.76498 0.58594-0.76498 1.3021 0 1.0742 2.7344 1.0742h3.0924q2.9948 0 4.5573 1.2858 1.5788 1.2858 1.5788 3.776 0 3.1901-2.6693 4.9479-2.653 1.7578-7.6334 1.7578-3.8086 0-5.8268-1.3346-2.002-1.3184-2.002-3.7109 0-1.6439 1.0254-2.7506t3.0111-1.5788q-0.76497-0.32552-1.3346-1.0579-0.56966-0.7487-0.56966-1.5788 0-1.0417 0.60221-1.7253 0.60222-0.69987 1.7415-1.3672-1.4323-0.61849-2.2786-1.9857-0.83007-1.3672-0.83007-3.2227 0-2.9785 1.9368-4.6061 1.9368-1.6276 5.5338-1.6276 0.76498 0 1.8066 0.14648 1.0579 0.13021 1.3509 0.19531zm-14.046 20.768q0 1.0254 0.97656 1.6113 0.99284 0.58594 2.7669 0.58594 2.6693 0 4.1829-0.73242 1.5137-0.73242 1.5137-2.002 0-1.0254-0.89519-1.416-0.89518-0.39062-2.7669-0.39062h-2.5716q-1.3672 0-2.2949 0.63476-0.91146 0.65104-0.91146 1.709zm1.8066-14.811q0 1.4811 0.66732 2.3437 0.68359 0.86263 2.067 0.86263 1.3997 0 2.0508-0.86263 0.65104-0.86263 0.65104-2.3437 0-3.2878-2.7018-3.2878-2.7344 0-2.7344 3.2878z"/>
   <path d="m252.36 52.181h-5.7292l-6.2337-10.026-2.1322 1.5299v8.4961h-5.0456v-23.796h5.0456v10.889l1.9857-2.7995 6.4453-8.0892h5.599l-8.3008 10.531z"/>
   <path d="m262.5 37.175q-1.5788 0-2.474 1.0091-0.89518 0.99284-1.0254 2.832h6.9661q-0.0326-1.8392-0.96029-2.832-0.92773-1.0091-2.5065-1.0091zm0.69987 15.332q-4.3945 0-6.8685-2.4251t-2.474-6.8685q0-4.5736 2.2786-7.0638 2.2949-2.5065 6.3314-2.5065 3.8574 0 6.0058 2.1973 2.1484 2.1973 2.1484 6.071v2.4089h-11.735q0.0814 2.1159 1.2532 3.304 1.1719 1.1882 3.2878 1.1882 1.6439 0 3.1087-0.3418 1.4648-0.3418 3.0599-1.0905v3.8411q-1.3021 0.65104-2.7832 0.96029-1.4811 0.32552-3.6133 0.32552z"/>
   <path d="m271.39 33.985h5.4362l3.4342 10.238q0.43945 1.3346 0.60221 3.1575h0.0976q0.17904-1.6764 0.69987-3.1575l3.3691-10.238h5.3223l-7.6986 20.524q-1.0579 2.8483-3.0273 4.2643-1.9531 1.416-4.5736 1.416-1.2858 0-2.5228-0.27669v-3.9388q0.89518 0.21159 1.9531 0.21159 1.3184 0 2.2949-0.8138 0.99283-0.79753 1.5462-2.4251l0.29297-0.89518z"/>
  </g>
 </g>
</svg>
