<svg width="329.18" height="131.56" version="1.1" viewBox="0 0 329.18 131.56" xmlns="http://www.w3.org/2000/svg">
  <style>
    @media (prefers-color-scheme: dark) {
      path {
        fill: white;
        stroke: white;
      }
      rect {
        stroke: white;
      }
    }
 </style>
 <g transform="matrix(2.5595 0 0 2.5798 -1368.5 -350.75)" stroke="#000" stroke-dashoffset="33.415" stroke-linecap="round" stroke-linejoin="round">
  <rect transform="matrix(.9999 -.014277 .051152 .99869 0 0)" x="528.78" y="147.49" width="123.15" height="45.248" ry="12.622" fill="none" stroke-width="4.4127" style="paint-order:normal"/>
  <g transform="matrix(1.3001 -.018564 .069076 1.3486 -191.89 -69.651)" stroke-width="3.0001" style="shape-inside:url(#rect48349);white-space:pre" aria-label="pwch">
   <path d="m575.21 186.34q-2.4038 0-3.7704-1.7448h-0.19523q0.19523 1.7082 0.19523 1.9767v5.5274h-3.7215v-19.645h3.026l0.52468 1.7693h0.17082q1.3056-2.0255 3.868-2.0255 2.416 0 3.7825 1.8669 1.3666 1.8669 1.3666 5.1857 0 2.1841-0.64669 3.7948-0.63449 1.6106-1.8181 2.4526t-2.782 0.84192zm-1.0982-11.165q-1.3788 0-2.0133 0.85412-0.63449 0.84192-0.6589 2.7942v0.40266q0 2.1963 0.6467 3.148 0.65889 0.95174 2.0743 0.95174 2.5014 0 2.5014-4.1242 0-2.0133-0.62228-3.0138-0.61009-1.0127-1.9279-1.0127z"/>
   <path d="m594.24 186.1-1.0494-4.7709-1.4154-6.0277h-0.0854l-2.4892 10.799h-4.0022l-3.8802-13.642h3.7093l1.574 6.0399q0.37825 1.6228 0.76871 4.478h0.0732q0.0488-0.92733 0.42706-2.9406l0.19523-1.0371 1.6838-6.5402h4.0998l1.5984 6.5402q0.0488 0.26843 0.14642 0.79311 0.10982 0.52468 0.20743 1.1226 0.0976 0.58569 0.17083 1.1592 0.0854 0.56128 0.0976 0.90293h0.0732q0.10982-0.87853 0.39046-2.4038 0.28064-1.5374 0.40266-2.0743l1.635-6.0399h3.6483l-3.929 13.642z"/>
   <path d="m609.96 186.34q-6.3693 0-6.3693-6.9916 0-3.4775 1.7326-5.3078 1.7326-1.8425 4.9661-1.8425 2.3671 0 4.2462 0.92733l-1.0982 2.8796q-0.87852-0.35385-1.635-0.57348-0.75651-0.23183-1.513-0.23183-2.904 0-2.904 4.1242 0 4.0022 2.904 4.0022 1.0738 0 1.9889-0.28064 0.91513-0.29284 1.8303-0.90293v3.1847q-0.90293 0.57348-1.8303 0.79311-0.91513 0.21963-2.3183 0.21963z"/>
   <path d="m629.86 186.1h-3.7215v-7.9678q0-2.9528-2.1963-2.9528-1.5618 0-2.2573 1.0616t-0.6955 3.4409v6.4181h-3.7215v-18.986h3.7215v3.868q0 0.45147-0.0854 2.1231l-0.0854 1.0982h0.19522q1.2446-2.0011 3.9534-2.0011 2.4038 0 3.6483 1.2934 1.2446 1.2934 1.2446 3.7093z"/>
  </g>
 </g>
</svg>
